<svg width="1034" height="1515" viewBox="0 0 1034 1515" fill="none" xmlns="http://www.w3.org/2000/svg">
<path d="M290.547 920.635C397.829 1212.48 471.801 1247.88 460.143 1419.94C456.249 1477.31 460.143 1514.89 460.143 1514.89H1034V593.61C1034 593.61 1000.08 641.141 929.692 631.119C888.988 625.32 827.025 622.964 820.091 586.589C815.454 562.234 834.221 547.791 823.547 523.303C814.404 502.305 795.485 501.127 792.401 481.106C789.667 463.374 803.337 456.641 799.335 442.419C794.217 424.309 770.551 406.71 758.959 384.978C743.955 356.847 752.047 359.202 754.344 294.717C755.416 264.985 767.336 244.564 768.189 241.965C794.173 162.369 772.891 14.267 741.658 1.68993C703.863 -13.5092 611.847 133.793 521.297 245.475C505.155 265.408 423.223 229.076 273.246 273.607C273.246 273.607 115.614 179.835 53.3004 124.749C39.5866 112.617 -76.3352 114.194 87.4865 377.912C93.1514 387.023 111.546 418.354 111.721 438.864C111.896 461.44 100.238 458.641 81.7341 486.928C56.1001 526.059 67.8672 575.834 69.0483 590.077C70.4482 607.098 69.8795 635.341 123.269 727.202C154.306 780.621 201.221 838.085 213.251 852.617C253.386 901.059 280.639 893.637 290.547 920.591V920.635Z" fill="black"/>
<path d="M579.44 404.058C579.44 404.058 498.526 386.348 476.815 395.203C455.105 404.058 450.237 409.775 436.537 423.077C428.996 430.399 419.027 443.482 419.027 443.482H436.537V443.46C436.537 443.46 498.494 441.415 536.47 426.925C565.415 415.872 579.44 404.058 579.44 404.058Z" fill="#B80404"/>
<path d="M136.758 467.256C136.758 467.256 194.782 427.986 214.971 430.265C235.16 432.545 240.953 436.571 256.312 445.275C264.767 450.066 277.099 459.606 277.099 459.606L263.241 464.495L263.233 464.474C263.233 464.474 213.505 479.845 178.53 476.798C151.869 474.468 136.758 467.256 136.758 467.256Z" fill="#B80404"/>
</svg>
