<svg width="1280" height="265" viewBox="0 0 1280 265" fill="none" xmlns="http://www.w3.org/2000/svg">
<path d="M662.989 0.381836H642.417C623.476 0.381836 608.123 20.0137 608.123 44.2161C608.123 20.0019 592.77 0.381836 573.829 0.381836H553.257C534.315 0.381836 518.962 20.0137 518.962 44.2161C518.962 20.0019 503.609 0.381836 484.668 0.381836H464.096C445.155 0.381836 429.802 20.0137 429.802 44.2161C429.802 20.0019 414.449 0.381836 395.508 0.381836H374.936C355.995 0.381836 340.642 20.0137 340.642 44.2161C340.642 20.0019 325.289 0.381836 306.347 0.381836H285.775C266.834 0.381836 251.481 20.0137 251.481 44.2161C251.481 20.0019 236.128 0.381836 217.187 0.381836H196.615C177.674 0.381836 162.321 20.0137 162.321 44.2161C162.321 20.0019 146.968 0.381836 128.027 0.381836H107.455C88.5134 0.381836 73.1604 20.0137 73.1604 44.2161C73.1604 20.0019 57.8074 0.381836 38.8663 0.381836H18.2941C-0.647003 0.381836 -16 20.0137 -16 44.2161V89.1514C-16 113.366 -0.647003 132.986 18.2941 132.986H38.8663C57.8074 132.986 73.1604 113.354 73.1604 89.1514C73.1604 113.366 88.5134 132.986 107.455 132.986H128.027C146.968 132.986 162.321 113.354 162.321 89.1514C162.321 113.366 177.674 132.986 196.615 132.986H217.187C236.128 132.986 251.481 113.354 251.481 89.1514C251.481 113.366 266.834 132.986 285.775 132.986H306.347C325.289 132.986 340.642 113.354 340.642 89.1514C340.642 113.366 355.995 132.986 374.936 132.986H395.508C414.449 132.986 429.802 113.354 429.802 89.1514C429.802 113.366 445.155 132.986 464.096 132.986H484.668C503.609 132.986 518.962 113.354 518.962 89.1514C518.962 113.366 534.315 132.986 553.257 132.986H573.829C592.77 132.986 608.123 113.354 608.123 89.1514C608.123 113.366 623.476 132.986 642.417 132.986H662.989C681.93 132.986 697.283 113.354 697.283 89.1514V44.2161C697.283 20.0019 681.93 0.381836 662.989 0.381836Z" fill="#B80404"/>
<path d="M662.989 29.9836H642.417C623.476 29.9836 608.123 49.6155 608.123 73.8178C608.123 49.6036 592.77 29.9836 573.829 29.9836H553.257C534.315 29.9836 518.962 49.6155 518.962 73.8178C518.962 49.6036 503.609 29.9836 484.668 29.9836H464.096C445.155 29.9836 429.802 49.6155 429.802 73.8178C429.802 49.6036 414.449 29.9836 395.508 29.9836H374.936C355.995 29.9836 340.642 49.6155 340.642 73.8178C340.642 49.6036 325.289 29.9836 306.347 29.9836H285.775C266.834 29.9836 251.481 49.6155 251.481 73.8178C251.481 49.6036 236.128 29.9836 217.187 29.9836H196.615C177.674 29.9836 162.321 49.6155 162.321 73.8178C162.321 49.6036 146.968 29.9836 128.027 29.9836H107.455C88.5134 29.9836 73.1604 49.6155 73.1604 73.8178C73.1604 49.6036 57.8074 29.9836 38.8663 29.9836H18.2941C-0.647007 29.9836 -16 49.6155 -16 73.8178V118.753C-16 142.967 -0.647007 162.587 18.2941 162.587H38.8663C57.8074 162.587 73.1604 142.956 73.1604 118.753C73.1604 142.967 88.5134 162.587 107.455 162.587H128.027C146.968 162.587 162.321 142.956 162.321 118.753C162.321 142.967 177.674 162.587 196.615 162.587H217.187C236.128 162.587 251.481 142.956 251.481 118.753C251.481 142.967 266.834 162.587 285.775 162.587H306.347C325.289 162.587 340.642 142.956 340.642 118.753C340.642 142.967 355.995 162.587 374.936 162.587H395.508C414.449 162.587 429.802 142.956 429.802 118.753C429.802 142.967 445.155 162.587 464.096 162.587H484.668C503.609 162.587 518.962 142.956 518.962 118.753C518.962 142.967 534.315 162.587 553.257 162.587H573.829C592.77 162.587 608.123 142.956 608.123 118.753C608.123 142.967 623.476 162.587 642.417 162.587H662.989C681.93 162.587 697.283 142.956 697.283 118.753V73.8178C697.283 49.6036 681.93 29.9836 662.989 29.9836Z" fill="#5F0008"/>
<path d="M662.989 66.6897H642.417C623.476 66.6897 608.123 86.3216 608.123 110.524C608.123 86.3097 592.77 66.6897 573.829 66.6897H553.257C534.315 66.6897 518.962 86.3216 518.962 110.524C518.962 86.3097 503.609 66.6897 484.668 66.6897H464.096C445.155 66.6897 429.802 86.3216 429.802 110.524C429.802 86.3097 414.449 66.6897 395.508 66.6897H374.936C355.995 66.6897 340.642 86.3216 340.642 110.524C340.642 86.3097 325.289 66.6897 306.347 66.6897H285.775C266.834 66.6897 251.481 86.3216 251.481 110.524C251.481 86.3097 236.128 66.6897 217.187 66.6897H196.615C177.674 66.6897 162.321 86.3216 162.321 110.524C162.321 86.3097 146.968 66.6897 128.027 66.6897H107.455C88.5134 66.6897 73.1604 86.3216 73.1604 110.524C73.1604 86.3097 57.8074 66.6897 38.8663 66.6897H18.2941C-0.647007 66.6897 -16 86.3216 -16 110.524V155.459C-16 179.673 -0.647007 199.294 18.2941 199.294H38.8663C57.8074 199.294 73.1604 179.662 73.1604 155.459C73.1604 179.673 88.5134 199.294 107.455 199.294H128.027C146.968 199.294 162.321 179.662 162.321 155.459C162.321 179.673 177.674 199.294 196.615 199.294H217.187C236.128 199.294 251.481 179.662 251.481 155.459C251.481 179.673 266.834 199.294 285.775 199.294H306.347C325.289 199.294 340.642 179.662 340.642 155.459C340.642 179.673 355.995 199.294 374.936 199.294H395.508C414.449 199.294 429.802 179.662 429.802 155.459C429.802 179.673 445.155 199.294 464.096 199.294H484.668C503.609 199.294 518.962 179.662 518.962 155.459C518.962 179.673 534.315 199.294 553.257 199.294H573.829C592.77 199.294 608.123 179.662 608.123 155.459C608.123 179.673 623.476 199.294 642.417 199.294H662.989C681.93 199.294 697.283 179.662 697.283 155.459V110.524C697.283 86.3097 681.93 66.6897 662.989 66.6897Z" fill="#B80404"/>
<path d="M662.989 96.2914H642.417C623.476 96.2914 608.123 115.923 608.123 140.126C608.123 115.911 592.77 96.2914 573.829 96.2914H553.257C534.315 96.2914 518.962 115.923 518.962 140.126C518.962 115.911 503.609 96.2914 484.668 96.2914H464.096C445.155 96.2914 429.802 115.923 429.802 140.126C429.802 115.911 414.449 96.2914 395.508 96.2914H374.936C355.995 96.2914 340.642 115.923 340.642 140.126C340.642 115.911 325.289 96.2914 306.347 96.2914H285.775C266.834 96.2914 251.481 115.923 251.481 140.126C251.481 115.911 236.128 96.2914 217.187 96.2914H196.615C177.674 96.2914 162.321 115.923 162.321 140.126C162.321 115.911 146.968 96.2914 128.027 96.2914H107.455C88.5134 96.2914 73.1604 115.923 73.1604 140.126C73.1604 115.911 57.8074 96.2914 38.8663 96.2914H18.2941C-0.647007 96.2914 -16 115.923 -16 140.126V185.061C-16 209.275 -0.647007 228.895 18.2941 228.895H38.8663C57.8074 228.895 73.1604 209.263 73.1604 185.061C73.1604 209.275 88.5134 228.895 107.455 228.895H128.027C146.968 228.895 162.321 209.263 162.321 185.061C162.321 209.275 177.674 228.895 196.615 228.895H217.187C236.128 228.895 251.481 209.263 251.481 185.061C251.481 209.275 266.834 228.895 285.775 228.895H306.347C325.289 228.895 340.642 209.263 340.642 185.061C340.642 209.275 355.995 228.895 374.936 228.895H395.508C414.449 228.895 429.802 209.263 429.802 185.061C429.802 209.275 445.155 228.895 464.096 228.895H484.668C503.609 228.895 518.962 209.263 518.962 185.061C518.962 209.275 534.315 228.895 553.257 228.895H573.829C592.77 228.895 608.123 209.263 608.123 185.061C608.123 209.275 623.476 228.895 642.417 228.895H662.989C681.93 228.895 697.283 209.263 697.283 185.061V140.126C697.283 115.911 681.93 96.2914 662.989 96.2914Z" fill="#5F0008"/>
<path d="M662.989 134.182H642.417C623.476 134.182 608.123 153.813 608.123 178.016C608.123 153.802 592.77 134.182 573.829 134.182H553.257C534.315 134.182 518.962 153.813 518.962 178.016C518.962 153.802 503.609 134.182 484.668 134.182H464.096C445.155 134.182 429.802 153.813 429.802 178.016C429.802 153.802 414.449 134.182 395.508 134.182H374.936C355.995 134.182 340.642 153.813 340.642 178.016C340.642 153.802 325.289 134.182 306.347 134.182H285.775C266.834 134.182 251.481 153.813 251.481 178.016C251.481 153.802 236.128 134.182 217.187 134.182H196.615C177.674 134.182 162.321 153.813 162.321 178.016C162.321 153.802 146.968 134.182 128.027 134.182H107.455C88.5134 134.182 73.1604 153.813 73.1604 178.016C73.1604 153.802 57.8074 134.182 38.8663 134.182H18.2941C-0.647007 134.182 -16 153.813 -16 178.016V222.951C-16 247.165 -0.647007 266.785 18.2941 266.785H38.8663C57.8074 266.785 73.1604 247.154 73.1604 222.951C73.1604 247.165 88.5134 266.785 107.455 266.785H128.027C146.968 266.785 162.321 247.154 162.321 222.951C162.321 247.165 177.674 266.785 196.615 266.785H217.187C236.128 266.785 251.481 247.154 251.481 222.951C251.481 247.165 266.834 266.785 285.775 266.785H306.347C325.289 266.785 340.642 247.154 340.642 222.951C340.642 247.165 355.995 266.785 374.936 266.785H395.508C414.449 266.785 429.802 247.154 429.802 222.951C429.802 247.165 445.155 266.785 464.096 266.785H484.668C503.609 266.785 518.962 247.154 518.962 222.951C518.962 247.165 534.315 266.785 553.257 266.785H573.829C592.77 266.785 608.123 247.154 608.123 222.951C608.123 247.165 623.476 266.785 642.417 266.785H662.989C681.93 266.785 697.283 247.154 697.283 222.951V178.016C697.283 153.802 681.93 134.182 662.989 134.182Z" fill="#B80404"/>
<path d="M-16 207.618C-16 183.403 -0.647007 163.783 18.2941 163.783H38.8663C57.8074 163.783 73.1604 183.415 73.1604 207.618V252.553C73.1604 276.767 57.8074 296.387 38.8663 296.387H18.2941C-0.647007 296.387 -16 276.755 -16 252.553V207.618Z" fill="#5F0008"/>
<path d="M73.1604 207.618C73.1604 183.403 88.5133 163.783 107.454 163.783H128.027C146.968 163.783 162.321 183.415 162.321 207.618V252.553C162.321 276.767 146.968 296.387 128.027 296.387H107.454C88.5133 296.387 73.1604 276.755 73.1604 252.553V207.618Z" fill="#5F0008"/>
<path d="M162.321 207.618C162.321 183.403 177.674 163.783 196.615 163.783H217.187C236.128 163.783 251.481 183.415 251.481 207.618V252.553C251.481 276.767 236.128 296.387 217.187 296.387H196.615C177.674 296.387 162.321 276.755 162.321 252.553V207.618Z" fill="#5F0008"/>
<path d="M251.481 207.618C251.481 183.403 266.834 163.783 285.775 163.783H306.348C325.289 163.783 340.642 183.415 340.642 207.618V252.553C340.642 276.767 325.289 296.387 306.348 296.387H285.775C266.834 296.387 251.481 276.755 251.481 252.553V207.618Z" fill="#5F0008"/>
<path d="M340.642 207.618C340.642 183.403 355.995 163.783 374.936 163.783H395.508C414.449 163.783 429.802 183.415 429.802 207.618V252.553C429.802 276.767 414.449 296.387 395.508 296.387H374.936C355.995 296.387 340.642 276.755 340.642 252.553V207.618Z" fill="#5F0008"/>
<path d="M428.715 207.618C428.715 183.403 444.068 163.783 463.009 163.783H483.581C502.522 163.783 517.875 183.415 517.875 207.618V252.553C517.875 276.767 502.522 296.387 483.581 296.387H463.009C444.068 296.387 428.715 276.755 428.715 252.553V207.618Z" fill="#5F0008"/>
<path d="M517.875 207.618C517.875 183.403 533.228 163.783 552.169 163.783H572.741C591.682 163.783 607.035 183.415 607.035 207.618V252.553C607.035 276.767 591.682 296.387 572.741 296.387H552.169C533.228 296.387 517.875 276.755 517.875 252.553V207.618Z" fill="#5F0008"/>
<path d="M607.035 207.618C607.035 183.403 622.388 163.783 641.329 163.783H661.902C680.843 163.783 696.196 183.415 696.196 207.618V252.553C696.196 276.767 680.843 296.387 661.902 296.387H641.329C622.388 296.387 607.035 276.755 607.035 252.553V207.618Z" fill="#5F0008"/>
<path d="M1375.99 0.381836H1355.42C1336.48 0.381836 1321.12 20.0137 1321.12 44.2161C1321.12 20.0019 1305.77 0.381836 1286.83 0.381836H1266.26C1247.32 0.381836 1231.96 20.0137 1231.96 44.2161C1231.96 20.0019 1216.61 0.381836 1197.67 0.381836H1177.1C1158.15 0.381836 1142.8 20.0137 1142.8 44.2161C1142.8 20.0019 1127.45 0.381836 1108.51 0.381836H1087.94C1068.99 0.381836 1053.64 20.0137 1053.64 44.2161C1053.64 20.0019 1038.29 0.381836 1019.35 0.381836H998.775C979.834 0.381836 964.481 20.0137 964.481 44.2161C964.481 20.0019 949.128 0.381836 930.187 0.381836H909.615C890.674 0.381836 875.321 20.0137 875.321 44.2161C875.321 20.0019 859.968 0.381836 841.027 0.381836H820.455C801.513 0.381836 786.16 20.0137 786.16 44.2161C786.16 20.0019 770.807 0.381836 751.866 0.381836H731.294C712.353 0.381836 697 20.0137 697 44.2161V89.1514C697 113.366 712.353 132.986 731.294 132.986H751.866C770.807 132.986 786.16 113.354 786.16 89.1514C786.16 113.366 801.513 132.986 820.455 132.986H841.027C859.968 132.986 875.321 113.354 875.321 89.1514C875.321 113.366 890.674 132.986 909.615 132.986H930.187C949.128 132.986 964.481 113.354 964.481 89.1514C964.481 113.366 979.834 132.986 998.775 132.986H1019.35C1038.29 132.986 1053.64 113.354 1053.64 89.1514C1053.64 113.366 1068.99 132.986 1087.94 132.986H1108.51C1127.45 132.986 1142.8 113.354 1142.8 89.1514C1142.8 113.366 1158.15 132.986 1177.1 132.986H1197.67C1216.61 132.986 1231.96 113.354 1231.96 89.1514C1231.96 113.366 1247.32 132.986 1266.26 132.986H1286.83C1305.77 132.986 1321.12 113.354 1321.12 89.1514C1321.12 113.366 1336.48 132.986 1355.42 132.986H1375.99C1394.93 132.986 1410.28 113.354 1410.28 89.1514V44.2161C1410.28 20.0019 1394.93 0.381836 1375.99 0.381836Z" fill="#B80404"/>
<path d="M1375.99 29.9836H1355.42C1336.48 29.9836 1321.12 49.6155 1321.12 73.8178C1321.12 49.6036 1305.77 29.9836 1286.83 29.9836H1266.26C1247.32 29.9836 1231.96 49.6155 1231.96 73.8178C1231.96 49.6036 1216.61 29.9836 1197.67 29.9836H1177.1C1158.15 29.9836 1142.8 49.6155 1142.8 73.8178C1142.8 49.6036 1127.45 29.9836 1108.51 29.9836H1087.94C1068.99 29.9836 1053.64 49.6155 1053.64 73.8178C1053.64 49.6036 1038.29 29.9836 1019.35 29.9836H998.775C979.834 29.9836 964.481 49.6155 964.481 73.8178C964.481 49.6036 949.128 29.9836 930.187 29.9836H909.615C890.674 29.9836 875.321 49.6155 875.321 73.8178C875.321 49.6036 859.968 29.9836 841.027 29.9836H820.455C801.513 29.9836 786.16 49.6155 786.16 73.8178C786.16 49.6036 770.807 29.9836 751.866 29.9836H731.294C712.353 29.9836 697 49.6155 697 73.8178V118.753C697 142.967 712.353 162.587 731.294 162.587H751.866C770.807 162.587 786.16 142.956 786.16 118.753C786.16 142.967 801.513 162.587 820.455 162.587H841.027C859.968 162.587 875.321 142.956 875.321 118.753C875.321 142.967 890.674 162.587 909.615 162.587H930.187C949.128 162.587 964.481 142.956 964.481 118.753C964.481 142.967 979.834 162.587 998.775 162.587H1019.35C1038.29 162.587 1053.64 142.956 1053.64 118.753C1053.64 142.967 1068.99 162.587 1087.94 162.587H1108.51C1127.45 162.587 1142.8 142.956 1142.8 118.753C1142.8 142.967 1158.15 162.587 1177.1 162.587H1197.67C1216.61 162.587 1231.96 142.956 1231.96 118.753C1231.96 142.967 1247.32 162.587 1266.26 162.587H1286.83C1305.77 162.587 1321.12 142.956 1321.12 118.753C1321.12 142.967 1336.48 162.587 1355.42 162.587H1375.99C1394.93 162.587 1410.28 142.956 1410.28 118.753V73.8178C1410.28 49.6036 1394.93 29.9836 1375.99 29.9836Z" fill="#5F0008"/>
<path d="M1375.99 66.6897H1355.42C1336.48 66.6897 1321.12 86.3216 1321.12 110.524C1321.12 86.3097 1305.77 66.6897 1286.83 66.6897H1266.26C1247.32 66.6897 1231.96 86.3216 1231.96 110.524C1231.96 86.3097 1216.61 66.6897 1197.67 66.6897H1177.1C1158.15 66.6897 1142.8 86.3216 1142.8 110.524C1142.8 86.3097 1127.45 66.6897 1108.51 66.6897H1087.94C1068.99 66.6897 1053.64 86.3216 1053.64 110.524C1053.64 86.3097 1038.29 66.6897 1019.35 66.6897H998.775C979.834 66.6897 964.481 86.3216 964.481 110.524C964.481 86.3097 949.128 66.6897 930.187 66.6897H909.615C890.674 66.6897 875.321 86.3216 875.321 110.524C875.321 86.3097 859.968 66.6897 841.027 66.6897H820.455C801.513 66.6897 786.16 86.3216 786.16 110.524C786.16 86.3097 770.807 66.6897 751.866 66.6897H731.294C712.353 66.6897 697 86.3216 697 110.524V155.459C697 179.673 712.353 199.294 731.294 199.294H751.866C770.807 199.294 786.16 179.662 786.16 155.459C786.16 179.673 801.513 199.294 820.455 199.294H841.027C859.968 199.294 875.321 179.662 875.321 155.459C875.321 179.673 890.674 199.294 909.615 199.294H930.187C949.128 199.294 964.481 179.662 964.481 155.459C964.481 179.673 979.834 199.294 998.775 199.294H1019.35C1038.29 199.294 1053.64 179.662 1053.64 155.459C1053.64 179.673 1068.99 199.294 1087.94 199.294H1108.51C1127.45 199.294 1142.8 179.662 1142.8 155.459C1142.8 179.673 1158.15 199.294 1177.1 199.294H1197.67C1216.61 199.294 1231.96 179.662 1231.96 155.459C1231.96 179.673 1247.32 199.294 1266.26 199.294H1286.83C1305.77 199.294 1321.12 179.662 1321.12 155.459C1321.12 179.673 1336.48 199.294 1355.42 199.294H1375.99C1394.93 199.294 1410.28 179.662 1410.28 155.459V110.524C1410.28 86.3097 1394.93 66.6897 1375.99 66.6897Z" fill="#B80404"/>
<path d="M1375.99 96.2914H1355.42C1336.48 96.2914 1321.12 115.923 1321.12 140.126C1321.12 115.911 1305.77 96.2914 1286.83 96.2914H1266.26C1247.32 96.2914 1231.96 115.923 1231.96 140.126C1231.96 115.911 1216.61 96.2914 1197.67 96.2914H1177.1C1158.15 96.2914 1142.8 115.923 1142.8 140.126C1142.8 115.911 1127.45 96.2914 1108.51 96.2914H1087.94C1068.99 96.2914 1053.64 115.923 1053.64 140.126C1053.64 115.911 1038.29 96.2914 1019.35 96.2914H998.775C979.834 96.2914 964.481 115.923 964.481 140.126C964.481 115.911 949.128 96.2914 930.187 96.2914H909.615C890.674 96.2914 875.321 115.923 875.321 140.126C875.321 115.911 859.968 96.2914 841.027 96.2914H820.455C801.513 96.2914 786.16 115.923 786.16 140.126C786.16 115.911 770.807 96.2914 751.866 96.2914H731.294C712.353 96.2914 697 115.923 697 140.126V185.061C697 209.275 712.353 228.895 731.294 228.895H751.866C770.807 228.895 786.16 209.263 786.16 185.061C786.16 209.275 801.513 228.895 820.455 228.895H841.027C859.968 228.895 875.321 209.263 875.321 185.061C875.321 209.275 890.674 228.895 909.615 228.895H930.187C949.128 228.895 964.481 209.263 964.481 185.061C964.481 209.275 979.834 228.895 998.775 228.895H1019.35C1038.29 228.895 1053.64 209.263 1053.64 185.061C1053.64 209.275 1068.99 228.895 1087.94 228.895H1108.51C1127.45 228.895 1142.8 209.263 1142.8 185.061C1142.8 209.275 1158.15 228.895 1177.1 228.895H1197.67C1216.61 228.895 1231.96 209.263 1231.96 185.061C1231.96 209.275 1247.32 228.895 1266.26 228.895H1286.83C1305.77 228.895 1321.12 209.263 1321.12 185.061C1321.12 209.275 1336.48 228.895 1355.42 228.895H1375.99C1394.93 228.895 1410.28 209.263 1410.28 185.061V140.126C1410.28 115.911 1394.93 96.2914 1375.99 96.2914Z" fill="#5F0008"/>
<path d="M1375.99 134.182H1355.42C1336.48 134.182 1321.12 153.813 1321.12 178.016C1321.12 153.802 1305.77 134.182 1286.83 134.182H1266.26C1247.32 134.182 1231.96 153.813 1231.96 178.016C1231.96 153.802 1216.61 134.182 1197.67 134.182H1177.1C1158.15 134.182 1142.8 153.813 1142.8 178.016C1142.8 153.802 1127.45 134.182 1108.51 134.182H1087.94C1068.99 134.182 1053.64 153.813 1053.64 178.016C1053.64 153.802 1038.29 134.182 1019.35 134.182H998.775C979.834 134.182 964.481 153.813 964.481 178.016C964.481 153.802 949.128 134.182 930.187 134.182H909.615C890.674 134.182 875.321 153.813 875.321 178.016C875.321 153.802 859.968 134.182 841.027 134.182H820.455C801.513 134.182 786.16 153.813 786.16 178.016C786.16 153.802 770.807 134.182 751.866 134.182H731.294C712.353 134.182 697 153.813 697 178.016V222.951C697 247.165 712.353 266.785 731.294 266.785H751.866C770.807 266.785 786.16 247.154 786.16 222.951C786.16 247.165 801.513 266.785 820.455 266.785H841.027C859.968 266.785 875.321 247.154 875.321 222.951C875.321 247.165 890.674 266.785 909.615 266.785H930.187C949.128 266.785 964.481 247.154 964.481 222.951C964.481 247.165 979.834 266.785 998.775 266.785H1019.35C1038.29 266.785 1053.64 247.154 1053.64 222.951C1053.64 247.165 1068.99 266.785 1087.94 266.785H1108.51C1127.45 266.785 1142.8 247.154 1142.8 222.951C1142.8 247.165 1158.15 266.785 1177.1 266.785H1197.67C1216.61 266.785 1231.96 247.154 1231.96 222.951C1231.96 247.165 1247.32 266.785 1266.26 266.785H1286.83C1305.77 266.785 1321.12 247.154 1321.12 222.951C1321.12 247.165 1336.48 266.785 1355.42 266.785H1375.99C1394.93 266.785 1410.28 247.154 1410.28 222.951V178.016C1410.28 153.802 1394.93 134.182 1375.99 134.182Z" fill="#B80404"/>
<path d="M697 207.618C697 183.403 712.353 163.783 731.294 163.783H751.866C770.807 163.783 786.16 183.415 786.16 207.618V252.553C786.16 276.767 770.807 296.387 751.866 296.387H731.294C712.353 296.387 697 276.755 697 252.553V207.618Z" fill="#5F0008"/>
<path d="M786.16 207.618C786.16 183.403 801.513 163.783 820.454 163.783H841.027C859.968 163.783 875.321 183.415 875.321 207.618V252.553C875.321 276.767 859.968 296.387 841.027 296.387H820.454C801.513 296.387 786.16 276.755 786.16 252.553V207.618Z" fill="#5F0008"/>
<path d="M875.321 207.618C875.321 183.403 890.674 163.783 909.615 163.783H930.187C949.128 163.783 964.481 183.415 964.481 207.618V252.553C964.481 276.767 949.128 296.387 930.187 296.387H909.615C890.674 296.387 875.321 276.755 875.321 252.553V207.618Z" fill="#5F0008"/>
<path d="M964.481 207.618C964.481 183.403 979.834 163.783 998.775 163.783H1019.35C1038.29 163.783 1053.64 183.415 1053.64 207.618V252.553C1053.64 276.767 1038.29 296.387 1019.35 296.387H998.775C979.834 296.387 964.481 276.755 964.481 252.553V207.618Z" fill="#5F0008"/>
<path d="M1053.64 207.618C1053.64 183.403 1068.99 163.783 1087.94 163.783H1108.51C1127.45 163.783 1142.8 183.415 1142.8 207.618V252.553C1142.8 276.767 1127.45 296.387 1108.51 296.387H1087.94C1068.99 296.387 1053.64 276.755 1053.64 252.553V207.618Z" fill="#5F0008"/>
<path d="M1141.71 207.618C1141.71 183.403 1157.07 163.783 1176.01 163.783H1196.58C1215.52 163.783 1230.88 183.415 1230.88 207.618V252.553C1230.88 276.767 1215.52 296.387 1196.58 296.387H1176.01C1157.07 296.387 1141.71 276.755 1141.71 252.553V207.618Z" fill="#5F0008"/>
<path d="M1230.88 207.618C1230.88 183.403 1246.23 163.783 1265.17 163.783H1285.74C1304.68 163.783 1320.04 183.415 1320.04 207.618V252.553C1320.04 276.767 1304.68 296.387 1285.74 296.387H1265.17C1246.23 296.387 1230.88 276.755 1230.88 252.553V207.618Z" fill="#5F0008"/>
<path d="M1320.04 207.618C1320.04 183.403 1335.39 163.783 1354.33 163.783H1374.9C1393.84 163.783 1409.2 183.415 1409.2 207.618V252.553C1409.2 276.767 1393.84 296.387 1374.9 296.387H1354.33C1335.39 296.387 1320.04 276.755 1320.04 252.553V207.618Z" fill="#5F0008"/>
<path d="M661.989 199H641.417C622.476 199 607.123 218.632 607.123 242.834C607.123 218.62 591.77 199 572.829 199H552.257C533.315 199 517.962 218.632 517.962 242.834C517.962 218.62 502.609 199 483.668 199H463.096C444.155 199 428.802 218.632 428.802 242.834C428.802 218.62 413.449 199 394.508 199H373.936C354.995 199 339.642 218.632 339.642 242.834C339.642 218.62 324.289 199 305.347 199H284.775C265.834 199 250.481 218.632 250.481 242.834C250.481 218.62 235.128 199 216.187 199H195.615C176.674 199 161.321 218.632 161.321 242.834C161.321 218.62 145.968 199 127.027 199H106.455C87.5134 199 72.1604 218.632 72.1604 242.834C72.1604 218.62 56.8074 199 37.8663 199H17.2941C-1.64701 199 -17 218.632 -17 242.834V287.77C-17 311.984 -1.64701 331.604 17.2941 331.604H37.8663C56.8074 331.604 72.1604 311.972 72.1604 287.77C72.1604 311.984 87.5134 331.604 106.455 331.604H127.027C145.968 331.604 161.321 311.972 161.321 287.77C161.321 311.984 176.674 331.604 195.615 331.604H216.187C235.128 331.604 250.481 311.972 250.481 287.77C250.481 311.984 265.834 331.604 284.775 331.604H305.347C324.289 331.604 339.642 311.972 339.642 287.77C339.642 311.984 354.995 331.604 373.936 331.604H394.508C413.449 331.604 428.802 311.972 428.802 287.77C428.802 311.984 444.155 331.604 463.096 331.604H483.668C502.609 331.604 517.962 311.972 517.962 287.77C517.962 311.984 533.315 331.604 552.257 331.604H572.829C591.77 331.604 607.123 311.972 607.123 287.77C607.123 311.984 622.476 331.604 641.417 331.604H661.989C680.93 331.604 696.283 311.972 696.283 287.77V242.834C696.283 218.62 680.93 199 661.989 199Z" fill="#B80404"/>
<path d="M661.989 228.602H641.417C622.476 228.602 607.123 248.234 607.123 272.436C607.123 248.222 591.77 228.602 572.829 228.602H552.257C533.315 228.602 517.962 248.234 517.962 272.436C517.962 248.222 502.609 228.602 483.668 228.602H463.096C444.155 228.602 428.802 248.234 428.802 272.436C428.802 248.222 413.449 228.602 394.508 228.602H373.936C354.995 228.602 339.642 248.234 339.642 272.436C339.642 248.222 324.289 228.602 305.347 228.602H284.775C265.834 228.602 250.481 248.234 250.481 272.436C250.481 248.222 235.128 228.602 216.187 228.602H195.615C176.674 228.602 161.321 248.234 161.321 272.436C161.321 248.222 145.968 228.602 127.027 228.602H106.455C87.5134 228.602 72.1604 248.234 72.1604 272.436C72.1604 248.222 56.8074 228.602 37.8663 228.602H17.2941C-1.64701 228.602 -17 248.234 -17 272.436V317.371C-17 341.586 -1.64701 361.206 17.2941 361.206H37.8663C56.8074 361.206 72.1604 341.574 72.1604 317.371C72.1604 341.586 87.5134 361.206 106.455 361.206H127.027C145.968 361.206 161.321 341.574 161.321 317.371C161.321 341.586 176.674 361.206 195.615 361.206H216.187C235.128 361.206 250.481 341.574 250.481 317.371C250.481 341.586 265.834 361.206 284.775 361.206H305.347C324.289 361.206 339.642 341.574 339.642 317.371C339.642 341.586 354.995 361.206 373.936 361.206H394.508C413.449 361.206 428.802 341.574 428.802 317.371C428.802 341.586 444.155 361.206 463.096 361.206H483.668C502.609 361.206 517.962 341.574 517.962 317.371C517.962 341.586 533.315 361.206 552.257 361.206H572.829C591.77 361.206 607.123 341.574 607.123 317.371C607.123 341.586 622.476 361.206 641.417 361.206H661.989C680.93 361.206 696.283 341.574 696.283 317.371V272.436C696.283 248.222 680.93 228.602 661.989 228.602Z" fill="#5F0008"/>
<path d="M1374.99 199H1354.42C1335.48 199 1320.12 218.632 1320.12 242.834C1320.12 218.62 1304.77 199 1285.83 199H1265.26C1246.32 199 1230.96 218.632 1230.96 242.834C1230.96 218.62 1215.61 199 1196.67 199H1176.1C1157.15 199 1141.8 218.632 1141.8 242.834C1141.8 218.62 1126.45 199 1107.51 199H1086.94C1067.99 199 1052.64 218.632 1052.64 242.834C1052.64 218.62 1037.29 199 1018.35 199H997.775C978.834 199 963.481 218.632 963.481 242.834C963.481 218.62 948.128 199 929.187 199H908.615C889.674 199 874.321 218.632 874.321 242.834C874.321 218.62 858.968 199 840.027 199H819.455C800.513 199 785.16 218.632 785.16 242.834C785.16 218.62 769.807 199 750.866 199H730.294C711.353 199 696 218.632 696 242.834V287.77C696 311.984 711.353 331.604 730.294 331.604H750.866C769.807 331.604 785.16 311.972 785.16 287.77C785.16 311.984 800.513 331.604 819.455 331.604H840.027C858.968 331.604 874.321 311.972 874.321 287.77C874.321 311.984 889.674 331.604 908.615 331.604H929.187C948.128 331.604 963.481 311.972 963.481 287.77C963.481 311.984 978.834 331.604 997.775 331.604H1018.35C1037.29 331.604 1052.64 311.972 1052.64 287.77C1052.64 311.984 1067.99 331.604 1086.94 331.604H1107.51C1126.45 331.604 1141.8 311.972 1141.8 287.77C1141.8 311.984 1157.15 331.604 1176.1 331.604H1196.67C1215.61 331.604 1230.96 311.972 1230.96 287.77C1230.96 311.984 1246.32 331.604 1265.26 331.604H1285.83C1304.77 331.604 1320.12 311.972 1320.12 287.77C1320.12 311.984 1335.48 331.604 1354.42 331.604H1374.99C1393.93 331.604 1409.28 311.972 1409.28 287.77V242.834C1409.28 218.62 1393.93 199 1374.99 199Z" fill="#B80404"/>
<path d="M1374.99 228.602H1354.42C1335.48 228.602 1320.12 248.234 1320.12 272.436C1320.12 248.222 1304.77 228.602 1285.83 228.602H1265.26C1246.32 228.602 1230.96 248.234 1230.96 272.436C1230.96 248.222 1215.61 228.602 1196.67 228.602H1176.1C1157.15 228.602 1141.8 248.234 1141.8 272.436C1141.8 248.222 1126.45 228.602 1107.51 228.602H1086.94C1067.99 228.602 1052.64 248.234 1052.64 272.436C1052.64 248.222 1037.29 228.602 1018.35 228.602H997.775C978.834 228.602 963.481 248.234 963.481 272.436C963.481 248.222 948.128 228.602 929.187 228.602H908.615C889.674 228.602 874.321 248.234 874.321 272.436C874.321 248.222 858.968 228.602 840.027 228.602H819.455C800.513 228.602 785.16 248.234 785.16 272.436C785.16 248.222 769.807 228.602 750.866 228.602H730.294C711.353 228.602 696 248.234 696 272.436V317.371C696 341.586 711.353 361.206 730.294 361.206H750.866C769.807 361.206 785.16 341.574 785.16 317.371C785.16 341.586 800.513 361.206 819.455 361.206H840.027C858.968 361.206 874.321 341.574 874.321 317.371C874.321 341.586 889.674 361.206 908.615 361.206H929.187C948.128 361.206 963.481 341.574 963.481 317.371C963.481 341.586 978.834 361.206 997.775 361.206H1018.35C1037.29 361.206 1052.64 341.574 1052.64 317.371C1052.64 341.586 1067.99 361.206 1086.94 361.206H1107.51C1126.45 361.206 1141.8 341.574 1141.8 317.371C1141.8 341.586 1157.15 361.206 1176.1 361.206H1196.67C1215.61 361.206 1230.96 341.574 1230.96 317.371C1230.96 341.586 1246.32 361.206 1265.26 361.206H1285.83C1304.77 361.206 1320.12 341.574 1320.12 317.371C1320.12 341.586 1335.48 361.206 1354.42 361.206H1374.99C1393.93 361.206 1409.28 341.574 1409.28 317.371V272.436C1409.28 248.222 1393.93 228.602 1374.99 228.602Z" fill="#5F0008"/>
</svg>
