<svg width="184" height="36" viewBox="0 0 184 36" fill="none" xmlns="http://www.w3.org/2000/svg">
<path d="M0.775879 5.03684C0.775879 5.03684 34.2489 -2.36975 43.2302 1.33356C52.2116 5.03687 54.2252 7.42769 59.8928 12.9906C63.0125 16.0526 67.1368 21.5241 67.1368 21.5241H59.8928V21.515C59.8928 21.515 34.2619 20.6598 18.5518 14.5999C6.57748 9.97759 0.775879 5.03684 0.775879 5.03684Z" fill="#B80404"/>
<path d="M183.908 31.4664C183.908 31.4664 159.904 15.0434 151.552 15.9968C143.2 16.9502 140.804 18.6339 134.45 22.274C130.952 24.2777 125.851 28.2673 125.851 28.2673L131.584 30.3117L131.587 30.3032C131.587 30.3032 152.159 36.7312 166.628 35.4571C177.657 34.4827 183.908 31.4664 183.908 31.4664Z" fill="#B80404"/>
</svg>
