<svg width="434" height="84" viewBox="0 0 434 84" fill="none" xmlns="http://www.w3.org/2000/svg">
<path d="M433.276 11.6953C433.276 11.6953 354.22 -5.79738 333.008 2.94899C311.797 11.6954 307.041 17.3419 293.655 30.4801C286.287 37.7121 276.547 50.6345 276.547 50.6345H293.655V50.613C293.655 50.613 354.19 48.593 391.293 34.2809C419.574 23.3642 433.276 11.6953 433.276 11.6953Z" fill="#B80404"/>
<path d="M0.760254 74.1158C0.760254 74.1158 57.4512 35.3285 77.1765 37.5803C96.9018 39.832 102.562 43.8083 117.569 52.4055C125.829 57.1378 137.878 66.5604 137.878 66.5604L124.338 71.3888L124.331 71.3685C124.331 71.3685 75.7442 86.55 41.5724 83.5408C15.5238 81.2397 0.760254 74.1158 0.760254 74.1158Z" fill="#B80404"/>
</svg>
