<svg width="318" height="938" viewBox="0 0 318 938" fill="none" xmlns="http://www.w3.org/2000/svg">
<path d="M95.7293 139.101C103.187 133.235 109.331 133.813 109.331 133.813C114.248 134.274 115.485 137.201 119.046 136.988C125.863 136.575 127.751 125.503 133.624 120.085C144.512 110.016 165.429 129.741 177.348 125.373C255.08 96.8428 288.785 0.781271 287.146 -0.363724C285.648 -1.40248 307.553 58.8101 230.787 152.841C225.131 159.77 239.048 171.551 238.559 187.711C237.864 210.54 225.87 223.418 229.81 245.822C231.807 257.166 235.932 259.822 237.582 260.612C242.749 263.08 247.341 258.204 249.24 260.612C260.899 275.403 238.494 278.968 232.719 303.933C231.764 308.053 230.429 315.159 224.947 320.837C221.321 324.602 218.282 325.24 215.232 327.176C210.434 330.221 205.614 336.43 201.63 356.757C196.854 381.061 193.88 396.229 198.71 412.755C203.541 429.293 212.366 434.097 247.297 465.59C277.746 493.035 292.975 506.763 298.793 516.312C323.619 557.036 316.965 604.819 316.281 609.293C311.146 642.958 297.371 645.744 287.135 686.421C277.311 725.433 277.387 937.08 277.387 937.08H0.845947C0.845947 937.08 80.2935 151.224 95.7293 139.101Z" fill="black"/>
<path d="M177.022 241.596C179.79 247.71 200.783 244.771 201.315 240.533C201.608 238.196 195.649 235.505 192.251 234.549C187.54 233.227 179.573 232.908 177.347 237.37C177.228 237.606 176.197 239.766 177.022 241.596Z" fill="#B80404"/>
<path d="M119.046 240.888C119.306 239.011 113.303 236.461 109.33 235.6C107.528 235.21 100.82 233.77 95.4034 238.067C93.9271 239.247 92.6245 240.274 92.8091 241.242C93.5689 245.208 118.525 244.594 119.046 240.888Z" fill="#B80404"/>
</svg>
