<svg width="433" height="84" viewBox="0 0 433 84" fill="none" xmlns="http://www.w3.org/2000/svg">
<path d="M0 11.6953C0 11.6953 79.0555 -5.79738 100.267 2.94899C121.479 11.6954 126.235 17.342 139.621 30.4801C146.989 37.7121 156.729 50.6345 156.729 50.6345H139.621V50.613C139.621 50.613 79.0863 48.593 41.9826 34.2809C13.7021 23.3641 0 11.6953 0 11.6953Z" fill="#B80404"/>
<path d="M432.516 74.1158C432.516 74.1158 375.825 35.3285 356.099 37.5802C336.374 39.832 330.714 43.8083 315.707 52.4054C307.447 57.1378 295.398 66.5603 295.398 66.5603L308.938 71.3888L308.945 71.3685C308.945 71.3685 357.532 86.5499 391.704 83.5408C417.752 81.2397 432.516 74.1158 432.516 74.1158Z" fill="#B80404"/>
</svg>
