<svg width="245" height="48" viewBox="0 0 245 48" fill="none" xmlns="http://www.w3.org/2000/svg">
<path d="M244.406 6.82305C244.406 6.82305 199.756 -3.05672 187.776 1.88317C175.795 6.82307 173.109 10.0122 165.549 17.4326C161.388 21.5172 155.886 28.8157 155.886 28.8157H165.549V28.8035C165.549 28.8035 199.739 27.6627 220.695 19.5793C236.667 13.4136 244.406 6.82305 244.406 6.82305Z" fill="#B80404"/>
<path d="M0.123779 42.0778C0.123779 42.0778 32.1425 20.171 43.2832 21.4427C54.4239 22.7145 57.6209 24.9603 66.0964 29.8159C70.7618 32.4887 77.5671 37.8105 77.5671 37.8105L69.9198 40.5376L69.9158 40.5262C69.9158 40.5262 42.4743 49.1005 23.1743 47.401C8.46224 46.1013 0.123779 42.0778 0.123779 42.0778Z" fill="#B80404"/>
</svg>
