<svg width="216" height="320" viewBox="0 0 216 320" fill="none" xmlns="http://www.w3.org/2000/svg">
<path d="M210.702 15.8157C210.702 15.8157 160.003 7.54415 156.01 6.8104C152.015 6.05347 148.647 1.63182 141.448 0.630428C134.248 -0.370963 121.617 4.79211 118.244 5.47611C114.871 6.16008 99.8048 19.768 90.684 25.8906C81.5632 32.0132 70.9584 51.8867 65.5694 59.4327C60.1925 66.9897 44.9204 82.7028 39.5695 89.6884C34.2064 96.6631 26.0662 112.567 24.6101 114.361C23.154 116.155 17.2111 123.687 16.4012 126.327C15.6021 128.955 13.9825 148.157 10.853 156.967C7.72354 165.778 4.32861 183.512 4.21609 188.961C4.10356 194.411 6.26753 213.893 5.48588 218.497C4.71635 223.112 3.89867 231.428 4.04748 236.187C4.098 237.929 5.53968 239.822 2.64314 242.653C0.763996 244.507 0.874764 251.28 0.384407 255.112C0.185357 256.716 -0.581475 261.796 1.17717 272.103C1.41643 273.508 10.4539 306.803 10.4539 306.803C10.4539 306.803 10.5366 271.944 20.6129 261.859C23.6478 258.822 21.862 261.112 23.6478 258.822C26.1211 255.631 28.7492 250.246 29.664 236.202C29.9873 231.229 29.4897 221.222 29.5921 218.913C29.6824 216.594 31.3866 203.9 31.6977 198.916C32.0211 193.943 35.92 180.518 35.92 180.518C35.92 180.518 35.3247 200.113 35.3603 207.193C35.3959 214.274 37.2738 227.353 37.4364 231.53C37.6111 235.718 34.6481 253.137 37.2705 258.451C37.6735 259.276 38.7339 258.866 36.431 262.011C34.5458 264.586 33.4779 277.324 37.518 292.616C41.323 306.99 49.4811 319.449 49.4811 319.449C49.4811 319.449 43.819 286.552 55.4435 279.865C57.3083 278.792 59.392 277.718 60.2427 274.982C62.5343 267.685 62.8426 260.364 62.5473 253.38C62.1177 242.729 61.8787 237.382 61.8866 236.486C61.9411 232.482 63.2808 219.658 63.269 216.123C63.2452 212.578 66.9351 187.907 66.9351 187.907C66.9351 187.907 68.6516 207.008 68.4867 212.344C68.3218 217.68 66.0558 241.431 65.7014 245.429C65.3579 249.414 63.7738 263.648 65.2744 267.643C66.1516 269.952 62.0781 269.433 65.9527 284.024C68.7753 294.606 78.1298 302.46 78.1298 302.46C78.1298 302.46 69.6328 276.414 77.1894 270.138C79.1721 268.488 78.5258 265.769 79.4596 264.738C85.3333 258.246 88.0685 240.666 88.0685 240.666C88.3936 236.972 91.5012 220.499 91.5704 213.645C91.6287 206.804 93.3262 197.937 93.8004 193.606C94.2746 189.276 97.0424 179.346 97.3657 174.374C97.689 169.401 97.6055 160.625 98.1339 157.687C98.6623 154.749 103.111 151.444 103.135 154.99C103.159 158.535 102.875 167.751 103.004 171.523C103.132 175.295 105.174 185.306 104.836 187.733C104.498 190.16 102.418 204.166 102.572 207.367C102.76 211.368 104.309 217.698 103.989 221.682C103.884 222.91 105.259 223.597 103.283 225.782C102.199 227.008 99.8617 237.436 99.8039 241.172C99.7057 248.749 110.54 265.204 110.54 265.204C110.54 265.204 99.2375 246.124 113.709 227.818C115.496 225.551 117.07 221.308 117.286 220.644C120.902 209.386 122.708 203.723 123.031 202.053C123.826 197.901 123.374 198.067 125.029 185.946C125.367 183.519 126.462 175.21 127.14 169.786C127.83 164.35 130.08 150.695 130.377 146.293C130.674 141.891 132.732 132.864 133.137 129.991C133.542 127.118 136.87 97.7818 139.422 88.9582C141.986 80.1223 145.955 70.6583 145.955 70.6583L215.936 103.304L210.608 15.7746L210.702 15.8157Z" fill="black"/>
</svg>
