<svg width="941" height="613" viewBox="0 0 941 613" fill="none" xmlns="http://www.w3.org/2000/svg">
<path d="M146.789 197.264L133.893 239.067L150.176 273.395L208.257 274.11L226.7 220.014L209.5 190.504L146.789 197.264Z" fill="#D9D9D9"/>
<path d="M257.434 248.297L241.554 304.133L259.174 324.942L287.562 313.255L278.333 248.297H257.434Z" fill="#D9D9D9"/>
<path d="M290.017 182.096L277.338 227.101V232.307L297.6 259.968L320.953 252.385L323.206 182.096H290.017Z" fill="#D9D9D9"/>
<path d="M0.5 282.719L41.0694 322.673L36.1594 358.944L130.816 439.473L111.145 584.556C130.661 621.215 288.355 621.946 302.308 584.556L285.713 417.95L342.877 369.387L350.257 211.39L325.677 263.651L306.627 314.064V331.888L321.994 359.55L318.918 374.297L270.362 411.796L175.394 390.273L182.464 322.642L128.377 356.457L88.4288 322.642L96.4153 247.023L76.7443 160.962L51.5419 292.525L38.6299 280.839L47.8439 178.165L30.6279 114.232L0.5 282.719Z" fill="#B80404"/>
<path d="M315.95 97.2779C292.472 69.6008 240.715 28.466 181.205 23.8816C100.362 17.65 36.0351 65.5138 10.5841 101.691C17.716 55.4593 94.0535 -5.93997 176.995 0.462582C240.793 5.37328 301.81 48.3263 315.95 97.2779Z" fill="#D9D9D9"/>
<path d="M875.085 471.029C873.762 468.414 871.982 466.253 869.745 464.549C867.511 462.812 864.928 461.519 861.999 460.668C859.101 459.816 856.063 459.388 852.881 459.388H816.127V527.54H834.883V502.078H852.881C854.928 502.078 856.945 501.842 858.929 501.368C860.943 500.895 862.848 500.217 864.645 499.332C866.438 498.448 868.093 497.362 869.604 496.066C871.117 494.773 872.423 493.32 873.526 491.711C874.66 490.103 875.542 488.336 876.171 486.41C876.8 484.453 877.115 482.371 877.115 480.163C877.115 476.66 876.438 473.617 875.085 471.029ZM857.369 486.369C856.866 488.228 856.077 489.852 855.007 491.241C853.935 492.629 852.549 493.717 850.848 494.507C849.18 495.263 847.149 495.642 844.754 495.642H834.883V466.065H844.754C849.229 466.065 852.566 467.328 854.77 469.851C857.008 472.344 858.123 475.781 858.123 480.169C858.123 482.409 857.873 484.474 857.369 486.369Z" fill="#D9D9D9"/>
<path d="M696.865 468.228C693.96 465.077 690.485 462.619 686.443 460.855C683.588 459.595 680.507 458.781 677.2 458.403C675.907 458.245 674.582 458.161 673.218 458.161H672.848V458.166C668.003 458.21 663.594 459.105 659.623 460.855C655.581 462.619 652.106 465.077 649.202 468.228C646.328 471.348 644.101 475.035 642.523 479.29C640.944 483.544 640.155 488.143 640.155 493.091V527.693H658.962V511.15H687.047V511.308L687.104 511.15V527.693H705.911V493.091C705.911 488.143 705.122 483.544 703.543 479.29C701.965 475.035 699.739 471.348 696.865 468.228ZM658.962 490.163C658.962 488.524 659.008 486.791 659.103 484.964C659.231 483.105 659.468 481.276 659.814 479.48C660.192 477.651 660.698 475.92 661.33 474.282C661.994 472.643 662.862 471.209 663.934 469.981C665.039 468.721 666.365 467.728 667.914 467.004C669.364 466.31 671.073 465.937 673.033 465.88C674.993 465.937 676.702 466.307 678.153 467.004C679.701 467.728 681.027 468.721 682.132 469.981C683.207 471.211 684.075 472.643 684.736 474.282C685.368 475.92 685.874 477.654 686.252 479.48C686.601 481.276 686.838 483.103 686.963 484.964C687.058 486.793 687.104 488.524 687.104 490.163V503.349H658.962V490.163Z" fill="#D9D9D9"/>
<path d="M563.881 527.543H612.932V518.833H582.713V497.822H606.054V489.158H582.713V468.098H612.932V459.391H563.881V527.543Z" fill="#D9D9D9"/>
<path d="M480.883 468.098H499.399V527.543H518.148V468.098H536.662V459.391H480.883V468.098Z" fill="#D9D9D9"/>
<path d="M733.129 467.804H751.644V527.246H770.394V467.804H788.91V459.097H733.129V467.804Z" fill="#D9D9D9"/>
<path d="M847.914 421.575C837.738 421.575 825.644 417.809 811.631 410.277C807.961 408.256 803.456 405.134 798.118 400.909C792.78 396.683 788.442 392.55 785.106 388.509C779.101 380.794 774.179 371.792 770.343 361.505C766.672 351.034 764.837 340.013 764.837 328.44C764.837 322.378 765.088 317.877 765.588 314.938C769.425 290.139 782.854 269.564 805.875 253.215C810.379 250.092 819.972 244.857 834.652 237.509C841.325 234.202 849.082 229.977 857.923 224.834V264.237L896.209 225.385C896.375 226.855 896.876 229.243 897.71 232.549C898.878 236.774 902.965 243.296 909.971 252.113C914.142 257.073 918.229 262.308 922.233 267.819C934.744 285.271 941 300.977 941 314.938C941 320.265 940.333 325.592 938.998 330.92C935.161 345.983 928.906 359.025 920.231 370.047C911.556 381.069 899.712 392.275 884.698 403.664C878.526 408.256 873.938 411.563 870.935 413.584C867.933 415.421 864.096 417.533 859.425 419.921C856.756 421.023 852.919 421.575 847.914 421.575ZM819.638 371.149C821.807 368.578 823.558 365.638 824.893 362.332C826.895 357.556 827.896 349.657 827.896 338.635L827.645 248.531C815.634 256.063 806.459 265.156 800.12 275.81C793.781 286.281 790.611 299.048 790.611 314.111C790.611 332.848 797.451 349.381 811.13 363.71C813.966 366.465 816.802 368.945 819.638 371.149ZM870.435 390.438C874.939 390.438 878.776 390.07 881.945 389.336C892.789 387.131 901.213 382.079 907.219 374.18C913.224 366.098 916.227 353.79 916.227 337.257C916.227 322.745 909.304 306.855 895.458 289.587L890.203 282.974C889.035 281.872 887.2 279.76 884.698 276.637C881.362 272.779 877.191 266.901 872.187 259.002L857.673 273.33V335.053L824.392 375.007C829.564 378.681 833.317 381.069 835.653 382.171C844.161 386.396 852.919 388.968 861.927 389.887L870.435 390.438Z" fill="#B80404"/>
<path d="M683.168 425.708L686.672 421.851C688.006 420.381 689.257 418.177 690.425 415.237C693.094 407.706 694.429 395.398 694.429 378.314C694.429 374.64 694.345 371.242 694.178 368.119C694.012 365.18 693.928 360.495 693.928 354.066L693.428 339.738C693.261 336.798 693.177 333.492 693.177 329.818C693.177 320.633 694.679 312.458 697.682 305.294C700.851 298.13 706.273 290.874 713.947 283.526C712.112 282.24 710.277 281.23 708.442 280.495C704.938 279.025 701.352 276.545 697.682 273.055C696.514 272.137 694.929 270.392 692.927 267.82L689.925 264.238C687.255 261.85 683.502 260.655 678.664 260.655C672.659 260.655 667.654 262.768 663.65 266.993C658.145 272.688 654.392 279.852 652.39 288.486C651.222 292.527 650.638 296.752 650.638 301.161C650.638 302.263 650.722 302.998 650.889 303.365V305.294L651.389 339.738V344.146C651.389 359.026 648.72 372.711 643.382 385.203C640.212 392.551 636.042 399.072 630.87 404.767C624.698 411.012 616.94 416.34 607.599 420.748C598.257 425.157 589.248 427.362 580.574 427.362C562.39 427.362 548.794 422.218 539.786 411.931C536.116 407.89 533.53 403.389 532.029 398.429C530.361 393.286 529.526 388.234 529.526 383.274C529.526 375.926 531.111 370.507 534.281 367.017C537.284 363.343 541.287 361.506 546.292 361.506C550.629 361.506 554.133 363.067 556.802 366.19C559.471 369.129 560.805 372.895 560.805 377.488C560.805 380.61 560.138 383.182 558.803 385.203C557.469 387.223 555.634 389.152 553.298 390.989C552.798 391.357 551.714 392.183 550.045 393.469C548.544 394.571 547.376 395.765 546.542 397.051C545.875 398.154 545.541 399.348 545.541 400.633C545.541 405.593 548.21 409.818 553.549 413.309C558.553 416.799 564.642 418.544 571.816 418.544C586.663 418.544 598.257 413.309 606.598 402.838C615.106 392.183 620.027 377.304 621.361 358.199L621.111 322.929C621.111 315.949 621.528 309.795 622.362 304.467C623.363 298.957 624.948 293.813 627.117 289.037C629.285 284.261 632.205 279.576 635.875 274.984C639.712 270.391 644.633 265.248 650.638 259.553L652.89 257.9L657.895 254.593C658.562 254.042 660.731 252.573 664.401 250.185L671.658 245.225L691.426 231.999C696.097 231.999 699.683 232.733 702.186 234.203C706.023 236.775 710.86 240.724 716.699 246.051C728.043 254.134 735.466 258.176 738.97 258.176C741.806 258.176 744.808 257.257 747.978 255.42L750.731 260.38C744.725 265.156 739.971 269.289 736.468 272.78C733.131 276.086 730.462 279.393 728.46 282.699C726.291 286.19 724.707 290.139 723.706 294.548C722.872 298.957 722.455 304.284 722.455 310.53L722.705 364.812C722.705 374.548 723.456 381.253 724.957 384.927C726.291 388.234 728.627 389.887 731.963 389.887C733.965 389.887 736.134 389.428 738.469 388.509C740.805 387.407 743.891 385.57 747.728 382.998L750.731 389.06L718.201 408.9C710.193 413.676 699.684 421.024 686.672 430.944L683.168 425.708Z" fill="#B80404"/>
<path d="M463.966 430.668C455.958 430.668 448.285 428.923 440.945 425.432C433.771 422.126 427.933 417.533 423.428 411.655C419.091 405.593 416.922 398.796 416.922 391.264C416.922 389.06 417.339 386.396 418.174 383.274C421.176 373.354 427.099 368.394 435.94 368.394C438.109 368.394 440.361 368.945 442.696 370.047C449.202 373.354 452.455 378.773 452.455 386.305C452.455 391.632 450.704 396.408 447.2 400.633C444.865 403.572 443.697 406.236 443.697 408.624C443.697 413.216 445.866 416.982 450.203 419.921C454.541 422.861 459.211 424.33 464.216 424.33C470.055 424.146 475.977 422.218 481.983 418.544C487.988 414.686 492.993 409.083 496.996 401.735C501.167 394.204 503.252 385.294 503.252 375.007C503.252 367.108 501.334 359.393 497.497 351.861C493.827 344.33 488.822 338.176 482.483 333.4C476.144 328.623 469.137 326.235 461.464 326.235C455.458 326.235 450.12 328.072 445.449 331.746L441.195 326.786C445.699 323.296 450.954 318.704 456.959 313.009L497.747 274.157C492.742 273.055 488.822 271.953 485.986 270.85C483.15 269.748 478.646 267.36 472.474 263.686C466.135 259.828 459.462 256.246 452.455 252.94C445.449 249.633 440.611 247.98 437.942 247.98C436.941 247.98 433.771 248.807 428.433 250.46L424.68 245.776L438.442 233.376C447.617 224.926 455.291 220.701 461.464 220.701C464.967 220.701 467.719 221.16 469.721 222.079C471.723 222.997 475.727 225.477 481.732 229.518L486.987 233.1C497.664 240.448 506.505 244.949 513.512 246.602C515.347 247.337 517.849 247.704 521.018 247.704C524.855 247.704 528.943 246.235 533.28 243.296L537.033 248.531C520.018 261.941 502.418 277.739 484.234 295.925C496.913 300.518 507.423 307.774 515.764 317.693C524.105 327.429 528.275 340.196 528.275 355.994C528.275 363.342 527.024 371.058 524.522 379.14C518.349 399.164 507.089 414.043 490.741 423.779C483.067 428.371 474.142 430.668 463.966 430.668Z" fill="#B80404"/>
</svg>
