<svg width="378" height="346" viewBox="0 0 378 346" fill="none" xmlns="http://www.w3.org/2000/svg">
<path d="M0.697144 129.923L35.9584 74.0873L59.0388 98.9837L0.697144 129.923Z" fill="#5F0008"/>
<path d="M13.7227 260.917L13.0214 194.883L45.9205 203.261L13.7227 260.917Z" fill="#5F0008"/>
<path d="M147.486 319.044L83.3832 303.174L99.7381 273.424L147.486 319.044Z" fill="#5F0008"/>
<path d="M239.762 345.126L194.584 335.579L202.097 303.415L239.762 345.126Z" fill="#5F0008"/>
<path d="M252.518 326.643L274.781 278.068L299.09 301.086L252.518 326.643Z" fill="#5F0008"/>
<path d="M377.303 169.005L332.586 120.41L362.639 105.11L377.303 169.005Z" fill="#5F0008"/>
<path d="M302.616 268.478L320.964 205.04L350.056 222.538L302.616 268.478Z" fill="#5F0008"/>
<path d="M327.349 52.3618L265.227 29.9585L284.566 2.05628L327.349 52.3618Z" fill="#5F0008"/>
<path d="M284.471 2.2211L276.626 71.728L227.336 42.5743L284.471 2.2211Z" fill="#B80404"/>
<path d="M214.524 33.4482C242.728 36.1687 254.755 50.383 274.835 70.3357C294.915 90.2884 307.442 116.567 310.283 144.694C313.123 172.82 306.101 201.055 290.412 224.587C274.724 248.119 251.339 265.492 224.244 273.746C197.148 282 168.018 280.625 141.817 269.854C115.615 259.083 93.9634 239.583 80.5508 214.677C67.1382 189.77 62.7946 160.999 68.2599 133.264C73.7253 105.53 72.4609 91.2898 94.3231 73.3178L188.504 145.565L214.524 33.4482Z" fill="#B80404"/>
<path d="M362.977 104.979L309.763 150.378L293.686 95.4147L362.977 104.979Z" fill="#B80404"/>
<path d="M349.964 222.72L280.222 217.352L307.605 167.056L349.964 222.72Z" fill="#B80404"/>
<path d="M194.719 335.16L159.668 274.627L216.631 268.732L194.719 335.16Z" fill="#B80404"/>
<path d="M83.1703 302.792L94.3337 233.741L142.171 265.221L83.1703 302.792Z" fill="#B80404"/>
<path d="M13.06 194.808L71.2691 156.021L80.7337 212.5L13.06 194.808Z" fill="#B80404"/>
<path d="M35.7967 74.3208L103.8 90.7011L68.7741 136.007L35.7967 74.3208Z" fill="#B80404"/>
<path d="M299.318 301.223L238.215 267.175L284.125 232.944L299.318 301.223Z" fill="#B80404"/>
<path d="M250.834 146.752L230.425 0L175.978 109.694L51.3096 52.3937L131.339 183.71L215.077 236.084L250.834 146.752Z" fill="#D9D9D9"/>
<path d="M208.228 222.208L233.876 171.104L200.881 197.232L157.616 188.153L208.228 222.208Z" fill="#5F0008"/>
<path fill-rule="evenodd" clip-rule="evenodd" d="M234.13 171.232L233.699 170.882L200.807 196.928L157.672 187.876L157.46 188.385L208.34 222.62L234.13 171.232ZM233.047 172.123L208.118 221.794L158.969 188.723L200.957 197.535L233.047 172.123Z" fill="#5F0008"/>
<path d="M153.62 137.635L116.928 126.179L139.164 162.064L178.454 175.69L153.62 137.635Z" fill="#5F0008"/>
<path fill-rule="evenodd" clip-rule="evenodd" d="M116.293 125.687L153.8 137.397L179.137 176.224L138.978 162.297L116.293 125.687ZM117.563 126.672L139.35 161.831L177.77 175.156L153.441 137.873L117.563 126.672Z" fill="#5F0008"/>
<path d="M208.188 118.278L231.587 87.7105L234.043 129.886L209.769 163.728L208.188 118.278Z" fill="#5F0008"/>
<path fill-rule="evenodd" clip-rule="evenodd" d="M231.822 86.9399L207.904 118.186L209.517 164.559L234.328 129.968L231.822 86.9399ZM231.35 88.4794L233.757 129.802L210.02 162.896L208.471 118.368L231.35 88.4794Z" fill="#5F0008"/>
</svg>
