<svg width="376" height="351" viewBox="0 0 376 351" fill="none" xmlns="http://www.w3.org/2000/svg">
<path d="M75.7244 26.5373L138.727 6.74754L140.234 40.6631L75.7244 26.5373Z" fill="#860206"/>
<path d="M0.953735 134.882L43.1194 84.0577L62.7974 111.722L0.953735 134.882Z" fill="#860206"/>
<path d="M65.3999 265.717L26.7652 212.16L58.4781 200.043L65.3999 265.717Z" fill="#860206"/>
<path d="M118.921 345.282L90.6342 308.786L117.163 289.11L118.921 345.282Z" fill="#860206"/>
<path d="M140.604 339.432L188.996 316.776L192.655 350.053L140.604 339.432Z" fill="#860206"/>
<path d="M337.725 299.878L335.038 233.895L367.856 241.657L337.725 299.878Z" fill="#860206"/>
<path d="M216.431 327.46L271.448 290.935L282.324 323.094L216.431 327.46Z" fill="#860206"/>
<path d="M375.046 178.601L342.147 121.341L374.942 112.563L375.046 178.601Z" fill="#860206"/>
<path d="M374.763 112.627L323.833 160.574L305.087 106.463L374.763 112.627Z" fill="#D9D9D9"/>
<path d="M301.215 91.2165C320.969 111.529 320.952 130.149 323.366 158.354C325.781 186.558 318.344 214.704 302.323 237.996C286.302 261.287 262.687 278.284 235.503 286.089C208.319 293.893 179.248 292.024 153.242 280.799C127.236 269.574 105.906 249.688 92.8842 224.529C79.8628 199.37 75.9566 170.495 81.831 142.823C87.7054 115.152 102.997 90.3965 125.1 72.7749C147.204 55.1533 155.447 43.4736 183.745 43.9017L208.867 159.913L301.215 91.2165Z" fill="#D9D9D9"/>
<path d="M368.199 241.776L298.251 241.996L321.529 189.674L368.199 241.776Z" fill="#D9D9D9"/>
<path d="M282.136 323.173L232.409 273.98L285.82 253.322L282.136 323.173Z" fill="#D9D9D9"/>
<path d="M91.0084 308.553L103.414 239.714L150.677 272.051L91.0084 308.553Z" fill="#D9D9D9"/>
<path d="M26.8498 211.731L80.0169 166.278L96.1507 221.225L26.8498 211.731Z" fill="#D9D9D9"/>
<path d="M43.1971 84.0256L112.68 92.0795L83.3778 141.282L43.1971 84.0256Z" fill="#D9D9D9"/>
<path d="M138.453 6.82107L179.733 63.2896L123.719 75.1997L138.453 6.82107Z" fill="#D9D9D9"/>
<path d="M192.74 350.304L168.149 284.821L225.304 288.398L192.74 350.304Z" fill="#D9D9D9"/>
<path d="M255.645 201.124L334.973 75.985L222.508 124.451L164.465 0.126465L140.597 152.044L170.604 246.143L255.645 201.124Z" fill="#B80404"/>
<path d="M174.353 231.13L226.963 208.733L184.899 207.328L157.767 172.425L174.353 231.13Z" fill="black"/>
<path fill-rule="evenodd" clip-rule="evenodd" d="M227.074 208.995L226.971 208.449L185.038 207.048L157.989 172.25L157.498 172.501L174.171 231.517L227.074 208.995ZM225.671 208.974L174.536 230.743L158.43 173.735L184.76 207.607L225.671 208.974Z" fill="black"/>
<path d="M187.386 131.306L166.806 98.8416L160.563 140.593L181.721 176.393L187.386 131.306Z" fill="black"/>
<path fill-rule="evenodd" clip-rule="evenodd" d="M166.639 98.0549L187.677 131.241L181.897 177.242L160.27 140.65L166.639 98.0549ZM166.972 99.6279L160.855 140.535L181.545 175.543L187.095 131.372L166.972 99.6279Z" fill="black"/>
<path d="M241.527 151.827L279.142 143.641L253.743 177.4L213.343 187.519L241.527 151.827Z" fill="black"/>
<path fill-rule="evenodd" clip-rule="evenodd" d="M279.82 143.205L241.37 151.573L212.614 187.989L253.907 177.648L279.82 143.205ZM278.464 144.075L253.579 177.152L214.073 187.046L241.684 152.079L278.464 144.075Z" fill="black"/>
</svg>
