<svg width="376" height="351" viewBox="0 0 376 351" fill="none" xmlns="http://www.w3.org/2000/svg">
<path d="M75.7244 27.2331L138.727 7.44335L140.234 41.3589L75.7244 27.2331Z" fill="#B80404"/>
<path d="M0.953735 135.577L43.1194 84.7535L62.7974 112.418L0.953735 135.577Z" fill="#B80404"/>
<path d="M65.3999 266.413L26.7652 212.856L58.4781 200.739L65.3999 266.413Z" fill="#B80404"/>
<path d="M118.921 345.978L90.6342 309.482L117.163 289.806L118.921 345.978Z" fill="#B80404"/>
<path d="M140.604 340.128L188.996 317.471L192.655 350.748L140.604 340.128Z" fill="#B80404"/>
<path d="M337.725 300.574L335.038 234.59L367.856 242.353L337.725 300.574Z" fill="#B80404"/>
<path d="M216.431 328.156L271.448 291.63L282.324 323.79L216.431 328.156Z" fill="#B80404"/>
<path d="M375.046 179.297L342.147 122.037L374.942 113.259L375.046 179.297Z" fill="#B80404"/>
<path d="M374.763 113.323L323.833 161.27L305.087 107.159L374.763 113.323Z" fill="#5F0008"/>
<path d="M301.215 91.9123C320.969 112.225 320.952 130.845 323.366 159.049C325.781 187.254 318.344 215.4 302.323 238.691C286.302 261.983 262.687 278.979 235.503 286.784C208.319 294.589 179.248 292.72 153.242 281.495C127.236 270.27 105.906 250.384 92.8842 225.225C79.8628 200.066 75.9566 171.191 81.831 143.519C87.7054 115.848 102.997 91.0923 125.1 73.4707C147.204 55.8491 155.447 44.1694 183.745 44.5975L208.867 160.609L301.215 91.9123Z" fill="#5F0008"/>
<path d="M368.199 242.472L298.251 242.691L321.529 190.369L368.199 242.472Z" fill="#5F0008"/>
<path d="M282.136 323.869L232.409 274.676L285.82 254.018L282.136 323.869Z" fill="#5F0008"/>
<path d="M91.0084 309.249L103.414 240.41L150.677 272.747L91.0084 309.249Z" fill="#5F0008"/>
<path d="M26.8498 212.427L80.0169 166.974L96.1507 221.921L26.8498 212.427Z" fill="#5F0008"/>
<path d="M43.1971 84.7214L112.68 92.7753L83.3778 141.977L43.1971 84.7214Z" fill="#5F0008"/>
<path d="M138.453 7.51687L179.733 63.9854L123.719 75.8955L138.453 7.51687Z" fill="#5F0008"/>
<path d="M192.74 351L168.149 285.517L225.304 289.094L192.74 351Z" fill="#5F0008"/>
<path d="M255.645 201.82L334.973 76.6808L222.508 125.147L164.465 0.822266L140.597 152.74L170.604 246.839L255.645 201.82Z" fill="#D9D9D9"/>
<path d="M174.353 231.826L226.963 209.429L184.899 208.023L157.767 173.121L174.353 231.826Z" fill="black"/>
<path fill-rule="evenodd" clip-rule="evenodd" d="M227.074 209.691L226.971 209.145L185.038 207.744L157.989 172.946L157.498 173.197L174.171 232.212L227.074 209.691ZM225.671 209.67L174.536 231.439L158.43 174.431L184.76 208.303L225.671 209.67Z" fill="black"/>
<path d="M187.386 132.002L166.806 99.5374L160.563 141.289L181.721 177.089L187.386 132.002Z" fill="black"/>
<path fill-rule="evenodd" clip-rule="evenodd" d="M166.639 98.7507L187.677 131.936L181.897 177.938L160.27 141.346L166.639 98.7507ZM166.972 100.324L160.855 141.231L181.545 176.239L187.095 132.067L166.972 100.324Z" fill="black"/>
<path d="M241.527 152.523L279.142 144.337L253.743 178.096L213.343 188.214L241.527 152.523Z" fill="black"/>
<path fill-rule="evenodd" clip-rule="evenodd" d="M279.82 143.901L241.37 152.269L212.614 188.685L253.907 178.343L279.82 143.901ZM278.464 144.77L253.579 177.847L214.073 187.742L241.684 152.775L278.464 144.77Z" fill="black"/>
</svg>
