<svg width="378" height="346" viewBox="0 0 378 346" fill="none" xmlns="http://www.w3.org/2000/svg">
<path d="M0.697144 130.619L35.9584 74.7832L59.0388 99.6795L0.697144 130.619Z" fill="#860206"/>
<path d="M13.7227 261.613L13.0214 195.579L45.9205 203.956L13.7227 261.613Z" fill="#860206"/>
<path d="M147.486 319.74L83.3832 303.87L99.7381 274.12L147.486 319.74Z" fill="#860206"/>
<path d="M239.762 345.822L194.584 336.275L202.097 304.111L239.762 345.822Z" fill="#860206"/>
<path d="M252.518 327.339L274.781 278.764L299.09 301.782L252.518 327.339Z" fill="#860206"/>
<path d="M377.303 169.701L332.586 121.106L362.639 105.806L377.303 169.701Z" fill="#860206"/>
<path d="M302.616 269.174L320.964 205.736L350.056 223.234L302.616 269.174Z" fill="#860206"/>
<path d="M327.349 53.0577L265.227 30.6544L284.566 2.7521L327.349 53.0577Z" fill="#860206"/>
<path d="M284.471 2.91692L276.626 72.4238L227.336 43.2701L284.471 2.91692Z" fill="#D9D9D9"/>
<path d="M214.524 34.1441C242.728 36.8645 254.755 51.0788 274.835 71.0315C294.915 90.9842 307.442 117.263 310.283 145.389C313.123 173.516 306.101 201.751 290.412 225.283C274.724 248.815 251.339 266.188 224.244 274.442C197.148 282.696 168.018 281.32 141.817 270.549C115.615 259.779 93.9634 240.279 80.5508 215.372C67.1382 190.466 62.7946 161.695 68.2599 133.96C73.7253 106.226 72.4609 91.9856 94.3231 74.0137L188.504 146.261L214.524 34.1441Z" fill="#D9D9D9"/>
<path d="M362.977 105.675L309.763 151.074L293.686 96.1106L362.977 105.675Z" fill="#D9D9D9"/>
<path d="M349.964 223.416L280.222 218.047L307.605 167.752L349.964 223.416Z" fill="#D9D9D9"/>
<path d="M194.719 335.856L159.668 275.323L216.631 269.428L194.719 335.856Z" fill="#D9D9D9"/>
<path d="M83.1703 303.488L94.3337 234.436L142.171 265.917L83.1703 303.488Z" fill="#D9D9D9"/>
<path d="M13.06 195.504L71.2691 156.717L80.7337 213.196L13.06 195.504Z" fill="#D9D9D9"/>
<path d="M35.7967 75.0167L103.8 91.3969L68.7741 136.703L35.7967 75.0167Z" fill="#D9D9D9"/>
<path d="M299.318 301.918L238.215 267.871L284.125 233.64L299.318 301.918Z" fill="#D9D9D9"/>
<path d="M250.834 147.448L230.425 0.695801L175.978 110.39L51.3096 53.0895L131.339 184.406L215.077 236.78L250.834 147.448Z" fill="#B80404"/>
<path d="M208.228 222.903L233.876 171.8L200.881 197.928L157.616 188.848L208.228 222.903Z" fill="black"/>
<path fill-rule="evenodd" clip-rule="evenodd" d="M234.13 171.927L233.699 171.578L200.807 197.624L157.672 188.572L157.46 189.081L208.34 223.316L234.13 171.927ZM233.047 172.819L208.118 222.49L158.969 189.419L200.957 198.231L233.047 172.819Z" fill="black"/>
<path d="M153.62 138.331L116.928 126.875L139.164 162.76L178.454 176.386L153.62 138.331Z" fill="black"/>
<path fill-rule="evenodd" clip-rule="evenodd" d="M116.293 126.383L153.8 138.092L179.137 176.92L138.978 162.992L116.293 126.383ZM117.563 127.368L139.35 162.527L177.77 175.851L153.441 138.569L117.563 127.368Z" fill="black"/>
<path d="M208.188 118.974L231.587 88.4063L234.043 130.582L209.769 164.424L208.188 118.974Z" fill="black"/>
<path fill-rule="evenodd" clip-rule="evenodd" d="M231.822 87.6358L207.904 118.882L209.517 165.255L234.328 130.664L231.822 87.6358ZM231.35 89.1752L233.757 130.498L210.02 163.592L208.471 119.064L231.35 89.1752Z" fill="black"/>
</svg>
